<svg width="40" height="40" viewBox="0 0 40 40" fill="none" xmlns="http://www.w3.org/2000/svg">
<circle cx="20" cy="20" r="20" fill="#F5F5F5"/>
<path d="M26.261 14.1665C28.2939 17.1766 29.2978 20.5718 28.9225 24.4805C28.9209 24.497 28.9124 24.5122 28.8989 24.5222C27.3594 25.6606 25.8679 26.3514 24.3973 26.8096C24.3859 26.8131 24.3736 26.8129 24.3623 26.809C24.3509 26.8052 24.3411 26.7979 24.3341 26.7881C23.9943 26.312 23.6856 25.8101 23.4152 25.2831C23.3997 25.252 23.4138 25.2146 23.4458 25.2024C23.9361 25.0164 24.4023 24.7934 24.8507 24.5294C24.886 24.5086 24.8883 24.4576 24.8556 24.4331C24.7605 24.362 24.6662 24.2872 24.576 24.2124C24.5591 24.1986 24.5364 24.1959 24.5172 24.2052C21.606 25.559 18.4168 25.559 15.4711 24.2052C15.452 24.1966 15.4293 24.1995 15.4129 24.2131C15.3229 24.2879 15.2284 24.362 15.1341 24.4331C15.1015 24.4576 15.1042 24.5086 15.1397 24.5294C15.5881 24.7884 16.0543 25.0164 16.5439 25.2033C16.5756 25.2155 16.5907 25.252 16.575 25.2831C16.3104 25.8108 16.0017 26.3127 15.6556 26.7888C15.6406 26.808 15.6158 26.8169 15.5924 26.8096C14.1288 26.3514 12.6373 25.6606 11.0978 24.5222C11.085 24.5122 11.0758 24.4963 11.0744 24.4798C10.7608 21.0988 11.4 17.6755 13.7335 14.1659C13.7391 14.1566 13.7476 14.1493 13.7575 14.145C14.9057 13.6143 16.1358 13.2239 17.4214 13.001C17.4448 12.9973 17.4682 13.0082 17.4804 13.0291C17.6392 13.3123 17.8208 13.6755 17.9436 13.9723C19.2988 13.7639 20.6751 13.7639 22.0587 13.9723C22.1815 13.6819 22.3568 13.3123 22.515 13.0291C22.5206 13.0187 22.5293 13.0104 22.5399 13.0054C22.5505 13.0003 22.5624 12.9988 22.5739 13.001C23.8602 13.2246 25.0903 13.615 26.2376 14.145C26.2477 14.1493 26.256 14.1566 26.261 14.1665ZM18.6326 20.5949C18.6468 19.5954 17.9232 18.7684 17.0148 18.7684C16.1139 18.7684 15.3973 19.5882 15.3973 20.5949C15.3973 21.6014 16.1281 22.4212 17.0148 22.4212C17.916 22.4212 18.6326 21.6014 18.6326 20.5949ZM24.6135 20.5949C24.6277 19.5954 23.9041 18.7684 22.996 18.7684C22.0949 18.7684 21.3783 19.5882 21.3783 20.5949C21.3783 21.6014 22.1091 22.4212 22.996 22.4212C23.9041 22.4212 24.6135 21.6014 24.6135 20.5949Z" fill="#333333"/>
</svg>
