<svg width="40" height="40" viewBox="0 0 40 40" fill="none" xmlns="http://www.w3.org/2000/svg">
<circle cx="20" cy="20" r="20" fill="#F5F5F5"/>
<path d="M29.5832 15.1859C29.3541 14.3268 28.6764 13.6491 27.8142 13.4168C26.2552 13 20 13 20 13C20 13 13.748 13 12.1858 13.4168C11.3268 13.6459 10.6491 14.3236 10.4168 15.1859C10 16.745 10 20 10 20C10 20 10 23.255 10.4168 24.8141C10.6459 25.6732 11.3236 26.3509 12.1858 26.5832C13.748 27 20 27 20 27C20 27 26.2552 27 27.8142 26.5832C28.6732 26.3541 29.3509 25.6764 29.5832 24.8141C30 23.255 30 20 30 20C30 20 30 16.745 29.5832 15.1859Z" fill="#333333"/>
<path d="M18 23.0005L23.1957 20L18 16.9995V23.0005Z" fill="#F5F5F5"/>
</svg>
