<svg xmlns="http://www.w3.org/2000/svg" width="21" height="24" viewBox="0 0 21 24" fill="none">
  <g clip-path="url(#clip0_539_114)">
    <path d="M19.3472 23.2747C19.3472 22.8861 19.6408 22.5925 20.0093 22.5925C20.3779 22.5925 20.6715 22.8861 20.6715 23.2747C20.6715 23.6634 20.3779 23.9569 20.0093 23.9569C19.6408 23.9569 19.3472 23.6634 19.3472 23.2747ZM20.5488 23.2747C20.5488 22.9534 20.311 22.7076 20.0093 22.7076C19.7077 22.7076 19.4699 22.9534 19.4699 23.2747C19.4699 23.596 19.7077 23.8419 20.0093 23.8419C20.311 23.8419 20.5488 23.596 20.5488 23.2747ZM19.74 22.9219H20.0532C20.2079 22.9219 20.2991 23.0012 20.2991 23.1363C20.2991 23.2551 20.2318 23.3306 20.1325 23.3544L20.2991 23.5764V23.6241H20.1879L20.0017 23.3702H19.8589V23.6241H19.74V22.9223V22.9219ZM20.0532 23.2628C20.1287 23.2628 20.1841 23.2232 20.1841 23.1478C20.1841 23.0723 20.1287 23.0365 20.0532 23.0365H19.8589V23.2624H20.0532V23.2628Z" fill="white"/>
    <path fill-rule="evenodd" clip-rule="evenodd" d="M9.36555 7.27757V4.96378C9.36555 4.59562 9.19553 4.42474 8.84228 4.42474H8.2666V7.81661H8.84228C9.19553 7.81661 9.36555 7.64574 9.36555 7.27757Z" fill="white"/>
    <path fill-rule="evenodd" clip-rule="evenodd" d="M7.5176 15.5272L7.20312 16.3189H7.82781L7.5176 15.5272Z" fill="white"/>
    <path fill-rule="evenodd" clip-rule="evenodd" d="M18.8044 0H1.87831C0.506223 0 0 0.506223 0 1.87874V18.4409C0 18.5965 0.00639171 18.7405 0.0200273 18.8743C0.0511336 19.1738 0.0570992 19.464 0.335778 19.7947C0.363049 19.8271 0.647267 20.0388 0.647267 20.0388C0.800241 20.1138 0.904639 20.1692 1.07722 20.2387L9.412 23.7307C9.8445 23.9288 10.0256 24.0064 10.3396 24C10.3396 24 10.3405 24 10.3409 24C10.3414 24 10.3418 24 10.3422 24C10.6563 24.0064 10.8373 23.9288 11.2703 23.7307L19.6051 20.2387C19.7776 20.1692 19.882 20.1138 20.035 20.0388C20.035 20.0388 20.3197 19.8271 20.3465 19.7947C20.6252 19.464 20.6311 19.1738 20.6623 18.8743C20.6759 18.7405 20.6823 18.5965 20.6823 18.4409V1.87874C20.6823 0.506223 20.1761 0 18.804 0H18.8044ZM11.3968 3.18946H12.7966V12.3914H11.3968V3.18946ZM11.4914 14.6323H12.307V17.417H11.5392V15.8178L10.8271 16.9078H10.8114L10.1032 15.8259V17.417H9.34723V14.6323H10.1628L10.8271 15.7104L11.4914 14.6323ZM6.86682 3.18946H9.06472C10.2029 3.18946 10.7653 3.75449 10.7653 4.8986V7.34364C10.7653 8.48733 10.2029 9.05236 9.06472 9.05236H8.26661V12.3914H6.86682V3.18946ZM3.0514 3.18946H6.16501V4.46439H4.45118V7.06752H6.09939V8.34245H4.45118V11.1165H6.19143V12.3914H3.05183V3.18946H3.0514ZM5.72739 17.0428C5.43295 17.2853 5.02345 17.4724 4.51808 17.4724C3.65094 17.4724 3.0024 16.8758 3.0024 16.0325V16.0244C3.0024 15.2131 3.63901 14.5765 4.50189 14.5765C4.99107 14.5765 5.33707 14.7278 5.63152 14.9822L5.17813 15.5272C4.97914 15.3601 4.78014 15.2647 4.50573 15.2647C4.1039 15.2647 3.79369 15.603 3.79369 16.0283V16.0364C3.79369 16.4859 4.10816 16.8081 4.54962 16.8081C4.73668 16.8081 4.87985 16.7684 4.99533 16.6926V16.3547H4.4465V15.7896H5.72739V17.0428ZM7.15147 14.6123H7.89546L9.08091 17.4165H8.2534L8.05057 16.9193H6.97633L6.77734 17.4165H5.96602L7.15147 14.6123ZM10.2766 22.0608L6.35336 20.7121H14.3664L10.2762 22.0608H10.2766ZM15.0755 17.4165H12.8162V14.6319H15.0559V15.2881H13.5802V15.71H14.917V16.3184H13.5802V16.7599H15.0759V17.4161L15.0755 17.4165ZM13.5364 10.7611V4.81935C13.5364 3.67566 14.0992 3.1102 15.237 3.1102H15.9175C17.0556 3.1102 17.6049 3.66245 17.6049 4.80614V6.68615H16.2315V4.88497C16.2315 4.51681 16.0615 4.34593 15.7083 4.34593H15.4726C15.1062 4.34593 14.9361 4.51681 14.9361 4.88497V10.6955C14.9361 11.0636 15.1062 11.2345 15.4726 11.2345H15.7342C16.0875 11.2345 16.2575 11.0636 16.2575 10.6955V8.61858H17.6313V10.7611C17.6313 11.9048 17.0688 12.4702 15.9307 12.4702H15.2374C14.0992 12.4702 13.5368 11.9052 13.5368 10.7611H13.5364ZM17.7046 16.5575C17.7046 17.1264 17.255 17.4643 16.5788 17.4643C16.0854 17.4643 15.6162 17.3092 15.274 17.0028L15.7036 16.4897C15.978 16.7083 16.2844 16.8238 16.6065 16.8238C16.8132 16.8238 16.9248 16.7522 16.9248 16.6329V16.6248C16.9248 16.5093 16.8332 16.4459 16.4552 16.3585C15.8625 16.2234 15.4049 16.056 15.4049 15.4833V15.4752C15.4049 14.9579 15.8148 14.5842 16.4829 14.5842C16.9563 14.5842 17.3262 14.7116 17.6287 14.954L17.2427 15.499C16.9883 15.3201 16.7096 15.2246 16.4629 15.2246C16.2758 15.2246 16.1842 15.3043 16.1842 15.4036V15.4117C16.1842 15.5391 16.2797 15.5945 16.6657 15.6823C17.3062 15.8216 17.7037 16.0283 17.7037 16.5494V16.5575H17.7046Z" fill="white"/>
  </g>
  <defs>
    <clipPath id="clip0_539_114">
      <rect width="20.6827" height="24" fill="white"/>
    </clipPath>
  </defs>
</svg>