<svg xmlns="http://www.w3.org/2000/svg" width="24" height="24" viewBox="0 0 24 24" fill="none">
  <g clip-path="url(#clip0_539_93)">
    <path d="M0.666332 15.3976C2.12627 20.2656 6.64159 23.8154 11.9847 23.8154C18.5101 23.8154 23.8001 18.5254 23.8001 12C23.8001 5.47457 18.5101 0.184601 11.9847 0.184601C5.72332 0.184601 0.599501 5.05586 0.194824 11.215C0.960609 12.4988 1.25784 13.293 0.665593 15.3976H0.666332Z" fill="url(#paint0_linear_539_93)"/>
    <path d="M0.666332 15.3976C2.12627 20.2656 6.64159 23.8154 11.9847 23.8154C18.5101 23.8154 23.8001 18.5254 23.8001 12C23.8001 5.47457 18.5101 0.184601 11.9847 0.184601C5.72332 0.184601 0.599501 5.05586 0.194824 11.215C0.960609 12.4988 1.25784 13.293 0.665593 15.3976H0.666332Z" fill="white"/>
    <path d="M11.3759 9.04061L11.377 9.09895L8.48594 13.2989C8.01776 13.2775 7.54809 13.3599 7.10206 13.5434C6.9079 13.6223 6.72252 13.7213 6.54896 13.8388L0.200032 11.222C0.200032 11.222 0.0530782 13.639 0.665263 15.4401L5.15363 17.2922C5.37517 18.2994 6.06932 19.1826 7.08914 19.6073C7.89146 19.9406 8.79329 19.9419 9.59657 19.6109C10.3998 19.2798 11.0389 18.6435 11.3733 17.8416C11.5518 17.4145 11.6378 16.9544 11.6259 16.4917L15.7587 13.536L15.8602 13.5378C18.3359 13.5378 20.3482 11.5196 20.3482 9.04061C20.3482 6.56159 18.3396 4.55076 15.8602 4.54559C13.3856 4.54559 11.3722 6.56159 11.3722 9.04061H11.3759ZM10.6818 17.5514C10.1449 18.8437 8.66354 19.4518 7.37603 18.9153C6.80469 18.6752 6.34159 18.2334 6.07486 17.674L7.53591 18.2795C7.76161 18.3735 8.00361 18.422 8.24809 18.4224C8.49257 18.4228 8.73472 18.375 8.96072 18.2818C9.18672 18.1885 9.39214 18.0517 9.56523 17.879C9.73832 17.7064 9.8757 17.5013 9.96951 17.2756C10.1595 16.8194 10.1606 16.3065 9.97263 15.8495C9.78467 15.3925 9.42299 15.0288 8.96705 14.8383L7.4532 14.2124C8.03585 13.9909 8.69825 13.9835 9.31782 14.2409C9.94551 14.5004 10.4255 14.9893 10.6825 15.6144C10.9395 16.2395 10.938 16.9289 10.6788 17.5514M15.8643 12.0369C15.071 12.0348 14.3109 11.7183 13.7504 11.1568C13.19 10.5954 12.8749 9.83465 12.8742 9.04135C12.8751 8.24817 13.1903 7.48766 13.7507 6.92635C14.3111 6.36503 15.0711 6.04867 15.8643 6.04652C16.6576 6.04847 17.4178 6.36475 17.9783 6.92609C18.5389 7.48742 18.8542 8.24804 18.855 9.04135C18.8544 9.83478 18.5392 10.5956 17.9786 11.1571C17.418 11.7186 16.6577 12.035 15.8643 12.0369ZM13.6238 9.03655C13.6233 8.4405 13.8595 7.86864 14.2804 7.44665C14.7014 7.02466 15.2727 6.78706 15.8687 6.78609C17.1075 6.78609 18.1151 7.79409 18.1151 9.03655C18.1154 9.63273 17.8789 10.2046 17.4577 10.6265C17.0364 11.0484 16.4649 11.2857 15.8687 11.2863C15.2727 11.2854 14.7015 11.0479 14.2805 10.6261C13.8594 10.2043 13.6235 9.63253 13.6238 9.03655Z" fill="black"/>
  </g>
  <defs>
    <linearGradient id="paint0_linear_539_93" x1="1180.46" y1="0.184601" x2="1180.46" y2="2363.26" gradientUnits="userSpaceOnUse">
      <stop stop-color="#111D2E"/>
      <stop offset="0.212" stop-color="#051839"/>
      <stop offset="0.407" stop-color="#0A1B48"/>
      <stop offset="0.581" stop-color="#132E62"/>
      <stop offset="0.738" stop-color="#144B7E"/>
      <stop offset="0.873" stop-color="#136497"/>
      <stop offset="1" stop-color="#1387B8"/>
    </linearGradient>
    <clipPath id="clip0_539_93">
      <rect width="24" height="24" fill="white"/>
    </clipPath>
  </defs>
</svg>