<svg xmlns="http://www.w3.org/2000/svg" width="20" height="22" viewBox="0 0 20 22" fill="none">
<g clip-path="url(#clip0_357_1738)">
<path d="M18.0682 21.3352C18.0682 20.9789 18.3374 20.7098 18.6752 20.7098C19.0131 20.7098 19.2822 20.9789 19.2822 21.3352C19.2822 21.6914 19.0131 21.9605 18.6752 21.9605C18.3374 21.9605 18.0682 21.6914 18.0682 21.3352ZM19.1697 21.3352C19.1697 21.0407 18.9518 20.8153 18.6752 20.8153C18.3987 20.8153 18.1807 21.0407 18.1807 21.3352C18.1807 21.6297 18.3987 21.8551 18.6752 21.8551C18.9518 21.8551 19.1697 21.6297 19.1697 21.3352ZM18.4284 21.0117H18.7155C18.8573 21.0117 18.9408 21.0844 18.9408 21.2082C18.9408 21.3172 18.8791 21.3863 18.7881 21.4082L18.9408 21.6117V21.6555H18.8389L18.6682 21.4227H18.5374V21.6555H18.4284V21.0121V21.0117ZM18.7155 21.3242C18.7846 21.3242 18.8354 21.2879 18.8354 21.2188C18.8354 21.1496 18.7846 21.1168 18.7155 21.1168H18.5374V21.3238H18.7155V21.3242Z" fill="white"/>
<path fill-rule="evenodd" clip-rule="evenodd" d="M8.91838 6.67113V4.55014C8.91838 4.21266 8.76253 4.05603 8.43872 4.05603H7.91101V7.16524H8.43872C8.76253 7.16524 8.91838 7.00861 8.91838 6.67113Z" fill="white"/>
<path fill-rule="evenodd" clip-rule="evenodd" d="M7.22418 14.2332L6.93591 14.959H7.50854L7.22418 14.2332Z" fill="white"/>
<path fill-rule="evenodd" clip-rule="evenodd" d="M17.5707 0H2.05516C0.797412 0 0.333374 0.464038 0.333374 1.72217V16.9042C0.333374 17.0467 0.339233 17.1788 0.351732 17.3014C0.380247 17.576 0.385715 17.842 0.64117 18.1451C0.666169 18.1748 0.926702 18.3689 0.926702 18.3689C1.06693 18.4377 1.16263 18.4885 1.32082 18.5521L8.96104 21.7531C9.3575 21.9348 9.52351 22.0059 9.81138 22C9.81138 22 9.81217 22 9.81256 22C9.81295 22 9.81334 22 9.81373 22C10.1016 22.0059 10.2676 21.9348 10.6645 21.7531L18.3047 18.5521C18.4629 18.4885 18.5586 18.4377 18.6988 18.3689C18.6988 18.3689 18.9597 18.1748 18.9843 18.1451C19.2398 17.842 19.2453 17.576 19.2738 17.3014C19.2863 17.1788 19.2921 17.0467 19.2921 16.9042V1.72217C19.2921 0.464038 18.8281 0 17.5703 0H17.5707ZM10.7805 2.92367H12.0636V11.3588H10.7805V2.92367ZM10.8672 13.413H11.6148V15.9656H10.9109V14.4996L10.2582 15.4988H10.2438L9.5946 14.507V15.9656H8.90167V13.413H9.64928L10.2582 14.4012L10.8672 13.413ZM6.62796 2.92367H8.6427C9.686 2.92367 10.2016 3.44161 10.2016 4.49039V6.73167C10.2016 7.78005 9.686 8.298 8.6427 8.298H7.9111V11.3588H6.62796V2.92367ZM3.13049 2.92367H5.98463V4.09236H4.41363V6.47856H5.92448V7.64725H4.41363V10.1901H6.00885V11.3588H3.13088V2.92367H3.13049ZM5.58349 15.6226C5.31358 15.8449 4.93821 16.0163 4.47495 16.0163C3.68007 16.0163 3.08557 15.4695 3.08557 14.6965V14.6891C3.08557 13.9454 3.66913 13.3618 4.46011 13.3618C4.90852 13.3618 5.22569 13.5005 5.4956 13.7336L5.08 14.2332C4.89758 14.0801 4.71517 13.9926 4.46362 13.9926C4.09528 13.9926 3.81092 14.3028 3.81092 14.6926V14.7C3.81092 15.1121 4.09919 15.4074 4.50385 15.4074C4.67533 15.4074 4.80657 15.3711 4.91243 15.3015V14.9918H4.40933V14.4738H5.58349V15.6226ZM6.88888 13.3946H7.57088L8.65754 15.9652H7.89899L7.71306 15.5093H6.72835L6.54593 15.9652H5.80222L6.88888 13.3946ZM9.75358 20.2224L6.15728 18.9861H13.5026L9.75318 20.2224H9.75358ZM14.1526 15.9652H12.0816V13.4126H14.1346V14.0141H12.7819V14.4008H14.0073V14.9586H12.7819V15.3632H14.1529V15.9648L14.1526 15.9652ZM12.7417 9.86432V4.41773C12.7417 3.36935 13.2577 2.85102 14.3006 2.85102H14.9244C15.9677 2.85102 16.4712 3.35724 16.4712 4.40562V6.12897H15.2123V4.47789C15.2123 4.1404 15.0564 3.98377 14.7326 3.98377H14.5166C14.1807 3.98377 14.0248 4.1404 14.0248 4.47789V9.80417C14.0248 10.1416 14.1807 10.2983 14.5166 10.2983H14.7564C15.0802 10.2983 15.2361 10.1416 15.2361 9.80417V7.90036H16.4954V9.86432C16.4954 10.9127 15.9798 11.431 14.9365 11.431H14.301C13.2577 11.431 12.7421 10.9131 12.7421 9.86432H12.7417ZM16.5626 15.1777C16.5626 15.6992 16.1505 16.0089 15.5306 16.0089C15.0783 16.0089 14.6482 15.8667 14.3346 15.5859L14.7283 15.1156C14.9799 15.316 15.2607 15.4218 15.556 15.4218C15.7454 15.4218 15.8478 15.3562 15.8478 15.2468V15.2394C15.8478 15.1336 15.7638 15.0754 15.4173 14.9953C14.874 14.8715 14.4545 14.718 14.4545 14.193V14.1856C14.4545 13.7114 14.8303 13.3688 15.4427 13.3688C15.8767 13.3688 16.2157 13.4856 16.4931 13.7079L16.1392 14.2074C15.906 14.0434 15.6505 13.9559 15.4244 13.9559C15.2529 13.9559 15.1689 14.0289 15.1689 14.12V14.1274C15.1689 14.2442 15.2564 14.2949 15.6103 14.3754C16.1974 14.5031 16.5618 14.6926 16.5618 15.1703V15.1777H16.5626Z" fill="white"/>
</g>
<defs>
<clipPath id="clip0_357_1738">
<rect width="18.9591" height="22" fill="white" transform="translate(0.333374)"/>
</clipPath>
</defs>
</svg>